<svg width="67" height="17" viewBox="0 0 67 17" fill="none" xmlns="http://www.w3.org/2000/svg">
<path d="M0.647031 17C0.487031 17 0.351031 16.952 0.239031 16.856C0.143031 16.744 0.0950306 16.608 0.0950306 16.448V0.775999C0.0950306 0.599999 0.143031 0.463999 0.239031 0.368C0.351031 0.255999 0.487031 0.199999 0.647031 0.199999H1.84703C2.02303 0.199999 2.15903 0.255999 2.25503 0.368C2.36703 0.463999 2.42303 0.599999 2.42303 0.775999V6.728L8.83103 0.584C9.08703 0.327999 9.39903 0.199999 9.76703 0.199999H11.063C11.191 0.199999 11.303 0.247999 11.399 0.344C11.495 0.44 11.543 0.552 11.543 0.68C11.543 0.807999 11.511 0.911999 11.447 0.991999L4.03103 8.24L11.927 16.184C12.007 16.28 12.047 16.392 12.047 16.52C12.047 16.648 11.999 16.76 11.903 16.856C11.807 16.952 11.695 17 11.567 17H10.223C9.87103 17 9.55903 16.864 9.28703 16.592L2.42303 9.848V16.448C2.42303 16.608 2.36703 16.744 2.25503 16.856C2.14303 16.952 2.00703 17 1.84703 17H0.647031ZM22.1411 17C21.7251 17 21.4771 16.784 21.3971 16.352L18.3011 0.943999C18.2851 0.863999 18.2771 0.776 18.2771 0.68C18.2771 0.552 18.3251 0.44 18.4211 0.344C18.5171 0.247999 18.6291 0.199999 18.7571 0.199999H20.0051C20.3411 0.199999 20.5331 0.335999 20.5811 0.607999L23.0291 12.992L25.6211 4.496C25.7651 4.112 26.0211 3.92 26.3891 3.92H27.2771C27.4851 3.92 27.6451 3.976 27.7571 4.088C27.8851 4.2 27.9731 4.336 28.0211 4.496L30.6371 12.992L33.0611 0.607999C33.1091 0.335999 33.3091 0.199999 33.6611 0.199999H34.9091C35.0371 0.199999 35.1491 0.247999 35.2451 0.344C35.3411 0.44 35.3891 0.552 35.3891 0.68L35.3651 0.943999L32.2691 16.352C32.1731 16.784 31.9251 17 31.5251 17H30.5891C30.1731 17 29.9091 16.8 29.7971 16.4L26.8211 7.256L23.8691 16.4C23.7411 16.8 23.4771 17 23.0771 17H22.1411ZM43.8798 17C43.7198 17 43.5838 16.952 43.4718 16.856C43.3758 16.744 43.3278 16.608 43.3278 16.448V0.751999C43.3278 0.591999 43.3758 0.463999 43.4718 0.368C43.5838 0.255999 43.7198 0.199999 43.8798 0.199999H45.1518C45.3118 0.199999 45.4398 0.255999 45.5358 0.368C45.6478 0.463999 45.7038 0.591999 45.7038 0.751999V16.448C45.7038 16.608 45.6478 16.744 45.5358 16.856C45.4398 16.952 45.3118 17 45.1518 17H43.8798ZM54.1383 17C53.9783 17 53.8423 16.952 53.7303 16.856C53.6343 16.744 53.5863 16.6 53.5863 16.424V15.392C53.5863 15.184 53.6183 15.016 53.6823 14.888C53.7623 14.76 53.8503 14.632 53.9463 14.504L62.8743 2.288H54.3543C54.1943 2.288 54.0583 2.24 53.9463 2.144C53.8503 2.032 53.8023 1.896 53.8023 1.736V0.775999C53.8023 0.599999 53.8503 0.463999 53.9463 0.368C54.0583 0.255999 54.1943 0.199999 54.3543 0.199999H65.2263C65.4023 0.199999 65.5383 0.255999 65.6343 0.368C65.7463 0.463999 65.8023 0.599999 65.8023 0.775999V1.808C65.8023 1.984 65.7703 2.128 65.7063 2.24C65.6583 2.352 65.5863 2.488 65.4903 2.648L56.6343 14.912H65.4663C65.6423 14.912 65.7783 14.968 65.8743 15.08C65.9863 15.176 66.0423 15.312 66.0423 15.488V16.448C66.0423 16.608 65.9863 16.744 65.8743 16.856C65.7783 16.952 65.6423 17 65.4663 17H54.1383Z" fill="black"/>
</svg>
