<svg width="100" height="114" viewBox="0 0 100 114" fill="none" xmlns="http://www.w3.org/2000/svg">
<rect width="100" height="114" rx="4" fill="black"/>
<rect x="23" y="65" width="55" height="4" rx="1" fill="white"/>
<path d="M28 95L72 70L75 70L31 95L28 95Z" fill="white"/>
<path d="M29.2367 70.1172L73.9295 95.012L70.8838 94.9857L25.9999 69.9805L29.2367 70.1172Z" fill="white"/>
<rect x="24" y="30" width="3" height="34" fill="white"/>
<rect x="74" y="30" width="3" height="34" fill="white"/>
<rect x="28" y="33" width="45" height="12" fill="white"/>
<rect x="4" width="6" height="3" fill="white"/>
<rect x="4" y="9" width="6" height="6" fill="white"/>
<rect x="4" y="21" width="6" height="6" fill="white"/>
<rect x="4" y="33" width="6" height="6" fill="white"/>
<rect x="4" y="45" width="6" height="6" fill="white"/>
<rect x="4" y="57" width="6" height="6" fill="white"/>
<rect x="4" y="69" width="6" height="6" fill="white"/>
<rect x="4" y="81" width="6" height="6" fill="white"/>
<rect x="4" y="93" width="6" height="6" fill="white"/>
<rect x="4" y="105" width="6" height="6" fill="white"/>
<rect x="90" y="9" width="6" height="6" fill="white"/>
<rect x="90" width="6" height="3" fill="white"/>
<rect x="90" y="21" width="6" height="6" fill="white"/>
<rect x="90" y="33" width="6" height="6" fill="white"/>
<rect x="90" y="45" width="6" height="6" fill="white"/>
<rect x="90" y="57" width="6" height="6" fill="white"/>
<rect x="90" y="69" width="6" height="6" fill="white"/>
<rect x="90" y="81" width="6" height="6" fill="white"/>
<rect x="90" y="93" width="6" height="6" fill="white"/>
<rect x="90" y="105" width="6" height="6" fill="white"/>
</svg>
