<svg width="100" height="120" viewBox="0 0 100 120" fill="none" xmlns="http://www.w3.org/2000/svg">
<rect y="6" width="100" height="114" rx="4" fill="black"/>
<rect x="23" y="71" width="55" height="4" rx="1" fill="white"/>
<path d="M28 101L72 76L75 76L31 101L28 101Z" fill="white"/>
<path d="M29.2367 76.1172L73.9295 101.012L70.8838 100.986L25.9999 75.9805L29.2367 76.1172Z" fill="white"/>
<rect x="24" y="36" width="3" height="34" fill="white"/>
<rect x="74" y="36" width="3" height="34" fill="white"/>
<rect x="28" y="39" width="45" height="12" fill="white"/>
<rect x="4" width="6" height="6" fill="white"/>
<rect x="4" y="12" width="6" height="6" fill="white"/>
<rect x="4" y="24" width="6" height="6" fill="white"/>
<rect x="4" y="36" width="6" height="6" fill="white"/>
<rect x="4" y="48" width="6" height="6" fill="white"/>
<rect x="4" y="60" width="6" height="6" fill="white"/>
<rect x="4" y="72" width="6" height="6" fill="white"/>
<rect x="4" y="84" width="6" height="6" fill="white"/>
<rect x="4" y="96" width="6" height="6" fill="white"/>
<rect x="4" y="108" width="6" height="6" fill="white"/>
<rect x="90" y="12" width="6" height="6" fill="white"/>
<rect x="90" width="6" height="6" fill="white"/>
<rect x="90" y="24" width="6" height="6" fill="white"/>
<rect x="90" y="36" width="6" height="6" fill="white"/>
<rect x="90" y="48" width="6" height="6" fill="white"/>
<rect x="90" y="60" width="6" height="6" fill="white"/>
<rect x="90" y="72" width="6" height="6" fill="white"/>
<rect x="90" y="84" width="6" height="6" fill="white"/>
<rect x="90" y="96" width="6" height="6" fill="white"/>
<rect x="90" y="108" width="6" height="6" fill="white"/>
</svg>
